<svg width="1024" height="1024" viewBox="0 0 1024 1024" fill="none" xmlns="http://www.w3.org/2000/svg">
  <defs>
    <linearGradient id="bg" x1="0" y1="0" x2="0" y2="1">
      <stop offset="0%" stop-color="#050b22"/>
      <stop offset="100%" stop-color="#09153d"/>
    </linearGradient>
    <radialGradient id="canopy" cx="0.5" cy="0.5" r="0.7">
      <stop offset="0%" stop-color="#9CEBFF"/>
      <stop offset="100%" stop-color="#4E6CFF"/>
    </radialGradient>
    <linearGradient id="heaven" x1="0" y1="0" x2="0" y2="1">
      <stop offset="0%" stop-color="#84EBFF"/>
      <stop offset="100%" stop-color="#1EA4FF"/>
    </linearGradient>
    <linearGradient id="world" x1="0" y1="0" x2="0" y2="1">
      <stop offset="0%" stop-color="#FFD45A"/>
      <stop offset="100%" stop-color="#FF9E00"/>
    </linearGradient>
    <filter id="glow" x="-50%" y="-50%" width="200%" height="200%">
      <feGaussianBlur stdDeviation="9" result="b"/>
      <feMerge><feMergeNode in="b"/><feMergeNode in="SourceGraphic"/></feMerge>
    </filter>
  </defs>

  <rect width="1024" height="1024" fill="url(#bg)"/>
  <g fill="#fff" opacity="0.9">
    <circle cx="120" cy="120" r="8"/><circle cx="230" cy="80" r="5"/><circle cx="790" cy="150" r="7"/>
    <circle cx="900" cy="240" r="9"/><circle cx="870" cy="370" r="5"/><circle cx="940" cy="510" r="8"/>
    <circle cx="95" cy="620" r="10"/><circle cx="180" cy="530" r="4"/><circle cx="820" cy="620" r="4"/>
  </g>

  <path d="M440 610C422 520 490 470 513 415C540 470 602 525 580 615H440Z" fill="#6D4A7E"/>
  <path d="M510 390C400 380 365 490 290 500C320 540 395 610 520 600C640 610 705 545 740 500C670 490 640 380 510 390Z" fill="url(#canopy)" filter="url(#glow)"/>
  <circle cx="375" cy="470" r="86" fill="url(#canopy)"/>
  <circle cx="625" cy="470" r="86" fill="url(#canopy)"/>
  <circle cx="515" cy="320" r="96" fill="url(#canopy)"/>

  <g transform="translate(690 505)">
    <ellipse cx="80" cy="95" rx="88" ry="70" fill="#5B3B2D"/>
    <rect x="40" y="80" width="230" height="75" rx="18" fill="#4A3026" transform="rotate(-8 40 80)"/>
    <path d="M62 124L270 112L275 124L70 138Z" fill="#D5D9E3" stroke="#7B879B" stroke-width="3"/>
  </g>

  <text x="512" y="812" text-anchor="middle" font-size="170" font-weight="900" font-family="Arial, sans-serif" fill="url(#heaven)" stroke="#1A6EEB" stroke-width="6">HEAVEN</text>
  <text x="512" y="950" text-anchor="middle" font-size="150" font-weight="900" font-family="Arial, sans-serif" fill="url(#world)" stroke="#B95D00" stroke-width="5">WORLD</text>
</svg>
